<svg width="250" height="261" viewBox="0 0 250 261" fill="none" xmlns="http://www.w3.org/2000/svg">
<path d="M216.866 56.5716C216.969 55.7279 216.722 54.9665 216.454 54.1845C215.055 50.0481 213.676 45.9118 212.338 41.7755C212.091 41.014 212.071 40.1909 211.947 39.3883L211.865 39.4501C213.079 39.9028 213.12 41.1375 213.491 42.0841C214.705 45.2739 215.898 48.5047 216.948 51.7562C218.738 57.3125 222.134 61.6546 226.702 65.1942C229.645 67.4578 232.547 69.7421 235.448 72.0263C237.918 73.9813 240.264 76.1009 242.363 78.4675C248.351 85.2585 250.635 93.1196 249.36 102.092C248.701 106.722 247.446 111.208 246.129 115.674C245.203 118.823 244.256 121.971 243.7 125.223C243.289 127.548 243.309 129.832 243.742 132.158C244.318 135.265 245.244 138.27 246.149 141.295C247.384 145.369 248.639 149.423 249.421 153.601C250.1 157.284 250.162 160.989 249.709 164.672C249.174 169.117 247.302 173.089 244.647 176.67C242.425 179.674 239.811 182.288 236.951 184.654C233.884 187.185 230.798 189.696 227.67 192.145C223.101 195.705 219.87 200.171 218.203 205.768C217.339 208.649 216.331 211.51 215.322 214.329C214.437 216.778 213.532 219.227 212.482 221.593C207.585 232.562 199.024 238.612 187.212 240.114C183.672 240.567 180.112 240.731 176.552 240.999C173.815 241.225 171.078 241.452 168.361 241.637C164.986 241.884 161.941 243.036 159.142 244.868C156.611 246.514 154.162 248.284 151.672 249.971C149.058 251.741 146.466 253.531 143.811 255.239C141.732 256.577 139.489 257.606 137.184 258.512C130.373 261.207 123.561 261.228 116.709 258.676C112.696 257.174 109.012 255.095 105.452 252.749C102.365 250.712 99.2577 248.675 96.1915 246.596C92.1992 243.901 87.7953 242.686 83.021 242.563C77.403 242.419 71.7644 242.625 66.167 241.822C64.0062 241.513 61.8249 241.184 59.7053 240.608C52.2146 238.591 46.4525 234.208 42.4602 227.54C40.4023 224.124 38.8589 220.461 37.4596 216.737C36.1631 213.279 34.8049 209.822 33.5496 206.344C32.1914 202.64 29.9689 199.553 26.9644 197.063C24.2274 194.779 21.3669 192.639 18.5476 190.478C15.2756 187.967 12.0447 185.436 9.18428 182.452C5.31546 178.378 2.57844 173.686 1.52892 168.15C0.70577 163.808 0.911558 159.404 1.63182 155.041C2.35208 150.699 3.62799 146.501 4.80098 142.282C7.68202 132.034 7.66144 130.717 4.5952 120.613C3.58683 117.341 2.55788 114.069 1.65242 110.756C0.273635 105.693 -0.364308 100.549 0.211899 95.2804C0.849842 89.3743 3.29871 84.3325 6.83827 79.5993C10.6659 74.4752 15.3579 70.3389 20.3791 66.5318C21.3669 65.7909 22.2724 64.9472 23.2396 64.1858C26.4293 61.6546 28.7547 58.5061 30.1747 54.6578C30.8949 52.7234 31.6975 50.8507 32.3971 48.9163C32.7264 48.0314 33.1997 47.1465 32.994 46.1382C32.5618 43.9774 33.3438 42.0842 34.2492 40.2115C35.3605 37.8655 36.4924 35.4989 37.6859 33.1941C42.8306 23.3163 51.1239 17.9452 61.9895 16.2166C66.4757 15.5169 71.003 15.414 75.5304 15.414C86.9928 15.3934 87.7542 15.1465 97.4262 8.86995C99.0313 7.82043 100.781 7.24422 102.633 6.64743C105.719 5.68023 108.991 5.28924 111.934 3.72525C113.725 2.77863 115.762 2.14068 117.758 1.74968C120.269 1.25579 122.862 0.453215 125.352 1.99663C125.681 2.20241 126.154 2.16126 126.566 2.20241C132.04 2.67573 136.876 4.85708 141.506 7.6558C143.729 8.99342 145.889 10.4751 148.071 11.895C150.252 13.315 152.413 14.7761 154.635 16.1343C158.072 18.2745 161.756 19.6327 165.851 19.7767C169.555 19.9208 173.239 20.0854 176.943 20.1677C180.791 20.2706 184.619 20.3735 188.405 21.0938C196.719 22.6578 203.057 26.9587 207.297 34.3259C209.21 37.6803 210.651 41.2198 212.009 44.8211C213.12 47.7639 214.211 50.7273 215.405 53.6494C215.796 54.6372 216.042 55.7485 217.01 56.407C217.113 57.1479 217.195 57.9093 217.298 58.6295C217.442 58.3826 217.504 58.3826 217.483 58.6295C217.401 58.6089 217.318 58.5884 217.257 58.5678C217.236 57.9298 217.936 57.1067 216.866 56.5716ZM219.232 60.6668C219.685 60.9549 220.158 61.2224 220.611 61.5105C220.632 61.9427 220.59 61.9633 220.467 61.5311C220.014 61.2636 219.561 60.9961 219.109 60.7286L219.068 60.5434C219.068 60.5434 219.212 60.6668 219.232 60.6668ZM35.5869 68.1369C36.1219 68.034 35.3605 67.6019 35.7926 67.9517C35.875 68.0135 35.9779 68.1163 35.9573 68.1781C35.875 68.425 35.7104 68.4456 35.5046 68.2193C35.7927 68.1369 35.7927 68.3633 35.6075 68.3222C35.093 68.1987 35.628 68.672 35.5869 68.1369ZM37.1097 65.5028C37.0686 66.0585 37.6653 65.3794 37.2126 65.7086C37.1303 65.7704 36.8628 65.7292 36.801 65.6469C36.5335 65.1736 36.801 65.9762 37.0068 65.4823C37.6242 65.3794 38.2621 65.2971 38.8795 65.1942C38.5296 64.4945 38.9001 64.0417 39.4145 63.6302C39.538 62.8893 39.6615 62.1485 39.785 61.4076C40.958 60.9549 41.1432 59.7819 41.5342 58.8147C43.2628 54.6372 44.9091 50.4391 46.576 46.2616C47.5432 43.8539 48.6339 41.4874 50.0744 39.306C52.585 35.4989 55.9599 32.8854 60.4049 31.6918C63.1831 30.951 66.0024 30.3954 68.8834 30.3337C72.0319 30.2513 75.1805 30.2308 78.3291 30.1484C81.7658 30.0661 85.1612 29.7574 88.5362 29.0989C93.1664 28.1935 97.2822 26.0121 101.213 23.4809C106.501 20.0854 111.584 16.3606 117.264 13.5825C117.367 13.5413 117.408 13.3561 117.47 13.2327H117.449C117.676 13.9323 117.737 14.5291 116.935 14.9407C112.778 17.0809 108.992 19.7973 105.102 22.3491C103.044 23.7073 100.966 25.0449 98.8462 26.3002C95.1626 28.5021 91.1908 29.9221 86.931 30.6217C83.659 31.1568 80.3664 31.1774 77.0944 31.198C72.9786 31.2391 68.8834 31.4037 64.7676 31.8565C57.8326 32.6385 52.7084 35.9722 49.4776 42.2076C47.9547 45.1298 46.8023 48.1961 45.6499 51.2829C44.3123 54.8842 42.9952 58.4855 41.5547 62.025C39.8878 66.1614 37.3155 69.7009 33.9818 72.6643C31.8416 74.5781 29.5779 76.389 27.3348 78.1794C24.9888 80.0726 22.5811 81.9042 20.2351 83.7974C18.3213 85.3614 16.5721 87.1106 15.0492 89.0656C12.0242 92.955 10.8717 97.3177 11.4685 102.195C11.8183 105.055 12.374 107.875 13.2177 110.632C14.3084 114.316 15.3785 117.999 16.428 121.683C18.2389 128.042 18.2184 134.401 16.4898 140.78C15.9136 142.9 15.2756 144.999 14.6994 147.118C13.8556 150.288 12.9708 153.477 12.2711 156.688C10.5013 164.754 12.5592 171.607 18.9592 176.999C20.8525 178.583 22.7663 180.147 24.7007 181.67C26.9644 183.44 29.2898 185.169 31.5946 186.877C37.4596 191.281 41.6576 196.899 44.2506 203.751C45.5059 207.085 46.8023 210.398 48.0988 213.732C49.2512 216.675 50.5477 219.535 52.2969 222.19C54.8281 226.018 58.347 228.446 62.8126 229.537C65.776 230.257 68.7805 230.421 71.785 230.463C75.3452 230.504 78.9259 230.463 82.486 230.483C90.0796 230.504 97.1175 232.376 103.476 236.636C105.987 238.324 108.498 239.991 111.07 241.575C113.395 243.016 115.741 244.436 118.17 245.712C123.952 248.757 129.735 248.593 135.476 245.526C138.378 243.962 141.094 242.131 143.811 240.258C146.404 238.468 148.997 236.657 151.631 234.949C157.043 231.45 163.011 229.619 169.473 229.393C172.354 229.29 175.235 229.228 178.116 229.063C181.799 228.837 185.504 228.775 189.146 227.931C194.394 226.717 198.345 223.857 201.041 219.206C202.419 216.819 203.531 214.329 204.436 211.736C205.63 208.382 206.803 205.007 207.955 201.632C210.342 194.553 214.458 188.708 220.364 184.099C223.183 181.897 225.941 179.674 228.719 177.41C231.168 175.414 233.493 173.295 235.469 170.805C238.041 167.553 239.276 163.911 239.153 159.733C239.05 156.132 238.124 152.695 237.115 149.259C236.045 145.575 234.872 141.912 233.781 138.249C231.991 132.199 231.826 126.087 233.349 119.975C234.008 117.32 234.728 114.666 235.448 112.032C236.416 108.451 237.424 104.891 237.938 101.228C238.947 93.9633 235.695 87.09 229.275 83.4681C225.303 81.2251 221.722 78.5087 218.121 75.7717C211.824 70.9974 207.358 64.9061 204.765 57.436C204.004 55.234 203.366 53.0321 201.534 51.3446C200.876 50.7478 200.67 49.6572 200.32 48.7723C199.868 47.6199 199.518 46.4469 199.065 45.2945C196.266 38.1124 191.204 33.8938 183.322 33.4822C179.083 33.2558 174.844 32.9677 170.584 32.8031C167.003 32.6796 163.464 32.3092 159.986 31.5478C153.38 30.1073 147.947 26.3825 142.638 22.452C141.959 21.9375 141.63 21.1761 141.197 20.497C138.172 15.7639 136.238 14.0764 131.217 11.9362C129.838 11.3394 128.356 10.9896 126.936 10.5368C126.154 10.2899 125.269 10.2487 124.611 9.81657C123.582 9.13747 122.594 9.21978 121.483 9.42557C119.013 9.85773 116.688 10.6603 114.548 11.895C111.934 13.3973 109.383 15.0024 106.872 16.6693C104.011 18.5626 101.233 20.5587 98.3934 22.4725C93.1253 25.9915 87.3014 27.7407 80.9837 27.9465C76.6005 28.07 72.2172 28.3992 67.8339 28.5845C65.632 28.6668 63.4712 29.0578 61.331 29.5722C55.713 30.8893 51.3503 33.9555 48.3663 38.9356C46.8846 41.4051 45.6705 44.0186 44.7239 46.7555C43.592 49.9864 42.4808 53.2379 41.4107 56.4893C40.855 58.1768 39.9084 59.7202 39.8673 61.5723C38.8589 62.2102 39.2293 63.0334 39.5174 63.8565C39.5792 64.4533 39.4557 64.9472 38.8589 65.2559C38.3033 65.2971 37.7065 65.3999 37.1097 65.5028Z" fill="#005473"/>
<path d="M134.613 0.658548C136.239 0.308708 137.515 1.23475 138.852 1.89328C142.66 3.76595 146.158 6.1531 149.636 8.56082C152.002 10.1865 154.348 11.8123 156.756 13.3763C159.555 15.1666 162.6 16.175 165.955 16.5454C170.173 17.0187 174.413 17.0187 178.631 17.1216C182.871 17.2245 187.089 17.7184 191.164 18.8502C193.119 19.3853 195.012 20.229 196.905 20.9698C197.399 21.155 197.893 21.4432 197.914 22.1017L197.975 22.0399C197.564 22.0399 197.111 22.1634 196.782 22.0194C190.197 18.8708 183.118 18.4592 175.997 18.1505C173.404 18.0476 170.811 18.0271 168.218 17.9859C163.444 17.9036 159.081 16.566 155.13 13.8701C153.217 12.5737 151.282 11.2566 149.389 9.91901C144.923 6.77045 140.437 3.68363 135.416 1.44054C135.107 1.29649 134.922 0.884918 134.675 0.596814L134.613 0.658548Z" fill="#005473"/>
<path d="M208.717 32.7001C207.894 32.6384 207.647 31.9387 207.297 31.4037C205.074 28.0905 202.317 25.3329 198.942 23.2133C198.51 22.9458 197.995 22.6782 197.995 22.0197L197.934 22.0815C198.489 21.9168 199.004 22.0403 199.477 22.349C203.243 24.695 206.247 27.7818 208.511 31.5889C208.696 31.8976 208.593 32.3709 208.635 32.7619L208.717 32.7001Z" fill="#005473"/>
<path d="M208.656 32.7825C210.714 34.861 211.496 36.4867 211.887 39.45L211.969 39.3883C210.323 37.4333 209.356 35.1491 208.739 32.7002C208.718 32.7002 208.656 32.7825 208.656 32.7825Z" fill="#005473"/>
<path d="M134.694 0.57666C134.323 0.57666 133.932 0.638397 133.582 0.57666C133.438 0.556081 133.315 0.309143 133.191 0.18567C133.294 0.123934 133.377 0.000455963 133.48 0.000455963C133.973 0.000455963 134.529 -0.0406992 134.611 0.65898L134.694 0.57666Z" fill="#005473"/>
<path d="M61.3308 80.4635C67.5868 80.4224 73.1842 81.7394 78.4935 84.0648C80.3662 84.888 81.7244 84.7851 83.4119 83.7767C91.4788 78.9407 100.142 75.6069 109.382 73.796C129.282 69.8654 148.091 72.9522 165.892 82.5625C166.736 83.0153 167.62 83.4474 168.382 84.0031C169.761 85.032 170.995 84.888 172.559 84.2089C178.136 81.76 183.981 80.4018 190.113 80.4841C198.118 80.587 205.156 83.3651 211.33 88.2835C215.734 91.7819 217.894 96.3915 216.33 102.092C214.664 108.142 210.424 111.496 204.395 112.587C201.822 113.06 199.229 112.793 196.678 112.011C193.509 111.023 190.545 109.624 187.644 108.06C183.301 105.714 179.165 103.018 175.091 100.219C174.185 99.6018 173.28 98.9639 172.354 98.3877C171.633 97.9349 171.037 98.223 170.728 98.9639C170.152 100.363 169.555 101.742 169.123 103.183C167.682 108.08 167.209 113.122 166.653 118.164C165.418 129.338 164.492 140.554 161.755 151.502C160.356 157.099 158.545 162.552 155.911 167.718C153.709 172.019 151.013 175.97 147.494 179.304C142.226 184.284 136.011 187.144 128.747 187.7C125.022 187.988 121.339 187.864 117.696 187.123C109.074 185.395 102.344 180.765 97.3438 173.583C94.01 168.808 91.808 163.499 90.2235 157.943C88.5154 151.995 87.4865 145.925 86.8486 139.772C85.799 129.688 85.1199 119.543 83.6177 109.5C83.0621 105.837 82.3212 102.215 80.6338 98.861C80.2839 98.1613 79.7077 97.8938 78.9669 98.3877C78.0614 99.005 77.1559 99.6224 76.2505 100.24C71.826 103.265 67.3604 106.187 62.6067 108.656C59.9315 110.056 57.1945 111.311 54.2723 112.114C50.5887 113.122 46.9257 113.081 43.3861 111.579C33.9816 107.566 31.1417 95.6095 39.7848 88.4481C44.9707 84.1265 52.9758 80.2783 61.3308 80.4635ZM203.057 97.6262C202.872 97.9143 202.913 98.0996 203.181 98.1613C203.181 98.1613 203.284 97.9761 203.242 97.9349C203.181 97.832 203.057 97.7703 202.954 97.7086C201.102 94.5806 198.077 93.0783 194.805 92.0082C191.903 91.0616 188.981 90.9793 186.182 92.3375C186.121 93.3047 186.759 93.6751 187.314 94.0249C189.166 95.1568 191.06 96.2475 192.953 97.3381C196.266 99.2108 199.662 99.0256 203.057 97.6262ZM155.973 90.3825C154.512 90.4648 153.4 89.5388 152.166 89.0037C133.377 80.978 114.651 81.0191 96.0267 89.5388C94.4216 90.2796 92.8782 91.1851 91.3348 92.07C90.5116 92.5433 90.2852 93.1812 90.7791 94.1073C93.4338 99.1285 94.7714 104.602 95.7386 110.138C97.0145 117.423 97.7554 124.79 98.3933 132.157C98.9489 138.578 99.4634 144.999 100.883 151.296C101.995 156.255 103.517 161.071 106.172 165.475C112.737 176.402 123.767 177.184 131.463 174.982C136.053 173.665 139.592 170.804 141.321 166.359C142.329 163.787 143.584 161.4 144.757 158.931C145.766 156.77 147.247 154.815 146.589 152.057C146.28 150.74 147.289 149.156 147.412 147.674C147.947 141.089 149.779 134.75 151.116 128.309C151.322 127.342 151.548 126.416 152.433 125.84C154.429 124.584 155.335 122.691 155.685 120.428C155.767 119.893 155.87 119.234 156.22 118.905C157.454 117.732 157.434 116.209 157.578 114.727C158.339 107.339 159.43 100.034 162.908 93.3253C163.402 92.3581 163.011 91.7613 162.229 91.3085C158.566 89.1272 154.676 87.4603 150.663 85.9786C150.458 85.9786 150.252 85.9581 150.046 85.9581C150.293 85.9786 150.519 85.9992 150.766 86.0198C151.178 87.5426 152.742 87.6249 153.73 88.4481C154.491 89.086 155.767 89.1889 155.911 90.4648L155.973 90.3825ZM66.1051 93.2841C63.08 92.7902 60.1167 92.4815 57.1533 92.8725C54.0871 93.2841 51.4736 94.7041 49.107 96.6385C48.6955 96.9883 48.1604 97.4616 48.4897 98.0172C49.107 99.005 48.8807 100.157 49.2099 101.145C49.7244 102.606 50.8356 103.471 52.3584 102.812C53.9842 102.112 55.6305 101.454 57.2562 100.734C57.709 100.528 58.2235 100.24 58.0588 99.4577C55.6511 98.7375 53.3463 101.372 50.3829 99.6635C56.3302 98.6963 61.5983 97.05 66.1051 93.2841ZM202.748 93.8603C202.543 94.0044 202.44 94.0661 202.357 94.1484C202.275 94.2513 202.213 94.3748 202.213 94.4777C202.275 95.1979 202.831 95.6301 203.283 96.1034C204.024 96.8648 204.806 97.5233 204.58 98.8404C204.456 99.5606 205.115 99.9928 205.938 99.8282C206.905 99.643 207.399 98.9639 207.152 98.1201C206.494 95.8565 204.58 94.8687 202.748 93.8603Z" fill="#005473"/>
<path d="M124.837 216.634C125.537 217.58 125.331 218.404 125.331 219.186C125.31 219.988 124.878 220.503 124.096 220.503C120.268 220.544 116.441 220.544 112.613 220.523C111.728 220.523 111.317 219.679 111.625 218.733C112.14 217.128 113.127 215.811 114.259 214.638C115.679 213.156 117.161 211.757 118.622 210.295C119.692 209.225 120.68 208.073 121.174 206.612C121.483 205.645 121.38 204.719 120.556 203.998C119.877 203.422 118.787 203.443 117.881 203.998C116.791 204.677 116.255 205.789 115.618 206.859C114.856 208.135 113.848 208.546 112.983 208.094C112.016 207.579 112.016 205.994 112.963 204.863C115.268 202.105 120.577 201.549 123.479 203.751C125.001 204.904 125.495 206.694 124.796 208.505C124.343 209.699 123.499 210.604 122.47 211.304C121.236 212.168 119.919 212.909 118.684 213.753C117.449 214.596 116.214 215.461 115.062 216.407C114.568 216.819 113.971 217.354 114.177 218.115C114.424 219.041 115.268 218.753 115.864 218.753C119.034 218.712 122.079 218.054 124.837 216.634Z" fill="#005473"/>
<path d="M138.359 220.255C136.712 220.79 135.128 220.646 133.255 220.399C133.44 219.124 133.646 217.971 133.749 216.819C133.852 215.749 133.461 215.234 132.452 215.152C131.094 215.049 129.715 215.07 128.357 215.028C127.822 215.008 127.267 214.967 126.731 214.905C126.217 214.843 125.929 214.02 126.279 213.608C127.328 212.353 128.419 211.118 129.51 209.904C131.259 207.97 133.008 206.056 134.778 204.163C135.148 203.772 135.601 203.443 136.033 203.154C136.609 202.784 137.577 203.216 137.597 203.875C137.679 205.789 137.638 207.702 137.741 209.596C137.844 211.057 137.268 212.6 138.276 213.958C138.42 214.144 138.523 214.514 138.441 214.658C137.144 216.469 138.276 218.342 138.359 220.255ZM128.172 213.464C129.983 214.226 131.341 213.979 132.658 213.917C133.234 213.897 133.687 213.547 133.749 212.929C133.811 212.394 133.872 211.839 133.831 211.283C133.749 210.378 134.304 209.102 133.42 208.628C132.37 208.073 131.876 209.41 131.259 210.028C130.271 210.995 129.427 212.065 128.172 213.464Z" fill="#005473"/>
<path d="M95.8439 213.629C93.9507 213.423 91.7693 213.238 89.6085 212.909C88.6825 212.765 87.777 212.394 86.8921 212.024C86.3777 211.818 86.0073 211.345 86.0896 210.748C86.1719 210.11 86.6658 209.884 87.2626 209.863C87.6742 209.843 88.0857 209.822 88.4973 209.904C92.6954 210.707 96.9346 210.46 101.174 210.46C101.73 210.46 102.265 210.419 102.82 210.48C103.438 210.542 104.364 210.234 104.549 211.057C104.816 212.189 103.643 212.23 102.985 212.518C100.783 213.423 98.4574 213.588 95.8439 213.629Z" fill="#005473"/>
<path d="M155.602 213.568C154.141 213.403 151.96 213.218 149.799 212.909C148.873 212.765 147.967 212.395 147.082 212.045C146.547 211.839 146.136 211.366 146.198 210.81C146.28 209.946 147.021 209.719 147.7 209.843C152.989 210.789 158.339 210.337 163.648 210.481C163.916 210.481 164.183 210.584 164.43 210.666C164.533 210.707 164.636 210.851 164.636 210.933C164.636 211.18 164.657 211.571 164.513 211.654C163.69 212.106 162.866 212.642 161.982 212.888C160.15 213.403 158.257 213.67 155.602 213.568Z" fill="#005473"/>
<path d="M117.512 13.2324C117.882 13.253 118.273 13.253 118.644 13.2942C118.829 13.3147 119.014 13.4176 119.199 13.4794C118.993 13.5617 118.746 13.7263 118.561 13.6852C118.211 13.6028 117.862 13.3971 117.512 13.2324Z" fill="#005473"/>
<path d="M157.638 91.2054C158.708 91.0202 159.449 91.6993 160.211 92.2344C160.663 92.5431 160.931 93.037 160.725 93.6337C160.684 93.7572 160.643 93.9013 160.581 94.0041C157.577 99.6222 156.486 105.816 155.19 111.928C155.025 112.731 154.881 113.533 154.654 114.315C154.552 114.686 154.284 115.036 154.058 115.447C153.337 114.748 153.667 113.966 153.811 113.287C154.552 109.541 155.272 105.796 156.198 102.112C156.815 99.6016 157.659 97.1321 158.935 94.8685C159.635 93.6543 159.285 92.8517 158.276 92.0903C158.009 91.8845 157.906 91.4318 157.721 91.1025C157.721 91.1231 157.638 91.2054 157.638 91.2054Z" fill="#005473"/>
<path d="M155.914 90.4648C156.717 90.2178 157.355 90.3207 157.663 91.2056L157.725 91.1233C156.943 91.3496 156.305 91.2468 155.976 90.3824L155.914 90.4648Z" fill="#005473"/>
</svg>
